<svg viewBox="115 65 225 185" xmlns="http://www.w3.org/2000/svg">
  <!-- Betaflight Wasp Logo (cropped from full logo) -->
  <path d="M229,180 C229,180 206,192 213,213 C222,238 264,235 288,225 C309,216 292,209 292,209 C292,209 270,197 270,197 C270,197 238,177 238,177 C238,177 229,180 229,180 C229,180 229,180 229,180" fill="#FFBB00"/>
  <path d="M301,215 C300,212 299,206 299,206 C306,207 314,204 314,204 C309,211 301,215 301,215 C301,215 301,215 301,215M272,228 C269,229 267,229 265,230 C268,227 272,223 272,217 C272,217 273,222 272,228 C272,228 272,228 272,228M244,231 C240,230 236,229 232,227 C230,227 228,226 227,225 C234,223 245,218 254,208 C254,208 253,219 244,231 C244,231 244,231 244,231M215,210 C214,206 214,202 215,198 C221,202 230,204 242,200 C242,200 234,210 215,210 C215,210 215,210 215,210M197,154 C189,154 181,153 175,151 C166,148 158,142 153,133 C147,122 143,114 140,109 C140,109 151,113 151,113 C151,113 140,89 140,89 C140,89 239,144 239,144 C237,144 234,145 231,146 C231,146 168,121 168,121 C168,121 222,152 222,152 C213,153 202,154 197,154 C197,154 197,154 197,154M292,142 C298,145 307,160 307,160 C299,159 284,154 282,148 C280,142 286,140 292,142 C292,142 292,142 292,142M286,199 C271,193 260,183 249,179 C255,177 260,173 264,170 C267,167 268,162 268,158 C279,166 293,167 300,167 C307,167 313,169 315,172 C315,172 317,134 238,108 C238,108 261,119 269,128 C269,128 260,127 257,132 C255,135 255,139 256,144 C255,144 254,144 252,143 C252,143 126,74 126,74 C126,74 140,102 140,102 C140,102 127,98 127,98 C127,98 131,105 131,105 C131,105 136,115 148,136 C158,153 175,161 197,160 C198,160 199,160 200,160 C206,160 214,159 223,158 C222,161 222,165 223,169 C224,174 226,178 229,180 C222,183 217,189 214,196 C214,196 214,196 214,196 C214,196 213,196 213,197 C213,197 213,197 213,197 C212,201 211,207 213,213 C213,213 213,213 213,213 C214,215 214,216 215,217 C216,219 217,220 218,221 C232,238 266,235 287,226 C288,226 288,226 288,226 C290,225 292,224 293,223 C294,223 294,223 294,223 C296,222 298,221 300,220 C321,207 328,193 328,193 C328,193 307,208 286,199 C286,199 286,199 286,199" fill="#3A3A3A"/>
  <path d="M252,147 C252,147 229,142 226,159 C224,167 227,174 231,176 C233,175 235,174 240,174 C239,174 237,172 236,169 C238,169 239,169 242,169 C242,169 236,167 234,161 C234,160 234,160 234,160 C235,161 236,161 237,161 C237,161 233,158 236,153 C239,150 244,147 252,147 C252,147 252,147 252,147" fill="#FFBB00"/>
</svg>
